<?xml version="1.0" encoding="UTF-8"?>
<svg version="1.1" xmlns="http://www.w3.org/2000/svg" width="512" height="512">
<path d="M0 0 C1.27419296 -0.00852997 2.54838593 -0.01705994 3.8611908 -0.02584839 C5.26078809 -0.02514946 6.66038528 -0.02422645 8.0599823 -0.02310181 C9.54378598 -0.02909059 11.02758655 -0.03589694 12.51138306 -0.04345703 C16.53218172 -0.06108923 20.55289521 -0.06581125 24.5737288 -0.0670886 C27.08883116 -0.0685124 29.60391201 -0.07278634 32.11900902 -0.07808304 C40.90208175 -0.09657451 49.68509387 -0.10475481 58.46818542 -0.10317993 C66.6411616 -0.10197895 74.81387352 -0.12307501 82.98678285 -0.15466726 C90.015449 -0.18086333 97.04402903 -0.19154583 104.07274359 -0.19026911 C108.26544632 -0.18976043 112.45791413 -0.19539126 116.65056801 -0.21662521 C120.59629201 -0.23606382 124.54155833 -0.23609409 128.48729897 -0.22159195 C129.92999443 -0.21950965 131.37271897 -0.22417011 132.81536484 -0.23631287 C142.42985296 -0.31195437 149.86983249 0.29963887 157.38102722 6.64242554 C162.69320206 13.01703535 164.92937481 18.7797907 167.24040222 26.72055054 C167.73132355 28.36540436 167.73132355 28.36540436 168.23216248 30.04348755 C168.91914834 32.35176169 169.60132711 34.66147133 170.27897644 36.97250366 C171.31981118 40.52180392 172.37446985 44.06676059 173.43180847 47.61117554 C174.09797469 49.85572944 174.76336658 52.10051334 175.42790222 54.34555054 C175.74346069 55.4100946 176.05901917 56.47463867 176.38414001 57.57144165 C176.67154053 58.55296204 176.95894104 59.53448242 177.25505066 60.54574585 C177.50945923 61.41145203 177.7638678 62.2771582 178.02598572 63.1690979 C178.56852722 65.26742554 178.56852722 65.26742554 178.56852722 67.26742554 C179.88238403 67.25854309 181.19624084 67.24966064 182.5499115 67.24050903 C194.9665517 67.15921985 207.38313749 67.09936259 219.79998398 67.06017685 C226.18274323 67.03935342 232.56528667 67.01113144 238.94792175 66.96566772 C245.11414444 66.92202326 251.28016027 66.89824903 257.44652557 66.88791656 C259.79231774 66.88055855 262.13809932 66.86619049 264.4838028 66.84450531 C280.52619686 66.70217462 293.49529049 66.87458164 306.56852722 77.26742554 C307.18341003 77.74566772 307.79829285 78.22390991 308.43180847 78.71664429 C314.8390651 84.35673493 319.87362914 93.86863394 321.56852722 102.26742554 C321.6590324 103.81961221 321.69931371 105.37514387 321.7027483 106.92996311 C321.70720614 107.86817703 321.71166399 108.80639094 321.71625692 109.77303559 C321.71598037 111.3143012 321.71598037 111.3143012 321.71569824 112.88670349 C321.71937493 113.98083555 321.72305162 115.07496761 321.72683972 116.20225519 C321.73788411 119.88161681 321.74172171 123.5609502 321.74552917 127.24032593 C321.75179329 129.87328176 321.75844004 132.5062367 321.76544189 135.13919067 C321.78519291 143.05013663 321.79527128 150.96108384 321.80416968 158.87204829 C321.80855525 162.5998899 321.81392141 166.3277301 321.81915855 170.0555706 C321.83617029 182.45229453 321.85066331 194.84901758 321.8579073 207.24575138 C321.85981711 210.46187911 321.86173745 213.67800682 321.86369324 216.89413452 C321.86417698 217.69346247 321.86466072 218.49279043 321.86515912 219.31634044 C321.87345512 232.25791847 321.898785 245.19940394 321.93127391 258.14094157 C321.96437674 271.43571906 321.98235901 284.73044958 321.98555154 298.0252685 C321.98771377 305.48655496 321.99642017 312.94770649 322.02201271 320.40895271 C322.04376392 326.76489239 322.05174855 333.12066434 322.04204593 339.47663701 C322.03751375 342.71657865 322.04152435 345.95610382 322.05880737 349.1960125 C322.07653708 352.71738512 322.06941367 356.23788827 322.05627441 359.75926208 C322.06724366 360.77115744 322.07821291 361.7830528 322.08951455 362.82561165 C321.98398488 374.58846417 317.58963591 384.87649828 309.53337097 393.42758179 C300.22849523 402.20731463 289.69312271 406.51079442 276.90498829 406.52469444 C276.1736516 406.52820052 275.44231492 406.53170659 274.68881652 406.53531891 C272.24896953 406.54459022 269.80936348 406.53972071 267.36950684 406.53485107 C265.59820127 406.53858949 263.82689736 406.54319178 262.05559605 406.54858172 C257.19607312 406.56080352 252.33661907 406.56055221 247.47708428 406.55819297 C242.23288103 406.55778459 236.9886998 406.56882596 231.74450684 406.57830811 C221.4728209 406.59491479 211.20115791 406.60041751 200.92945967 406.60153286 C192.5787855 406.60248353 184.2281189 406.60659476 175.87744713 406.61293411 C152.19542488 406.63054591 128.51342075 406.63977312 104.83139191 406.63827316 C103.55492244 406.63819325 102.27845297 406.63811334 100.96330261 406.63803101 C99.68527231 406.63794924 98.407242 406.63786748 97.09048351 406.63778324 C76.38099243 406.63697045 55.6715741 406.65610671 34.96210406 406.68430774 C13.69155942 406.71304395 -7.57894976 406.72684761 -28.84951431 406.72512019 C-40.78879322 406.72445652 -52.72799589 406.72993848 -64.66725731 406.75147629 C-74.83322895 406.76969778 -84.99908977 406.77402743 -95.16507068 406.76045744 C-100.34947155 406.75393264 -105.53365988 406.7537931 -110.71804047 406.77116394 C-115.46980069 406.78692113 -120.22118028 406.78400394 -124.97293136 406.76659568 C-126.68623827 406.76353161 -128.39957377 406.76713566 -130.11284693 406.77831583 C-145.91529081 406.87455579 -158.70429942 404.32671199 -170.65022278 393.20101929 C-177.58783726 385.96570866 -182.54321146 376.7825504 -182.56569386 366.60488796 C-182.5701517 365.66667405 -182.57460954 364.72846013 -182.57920247 363.76181549 C-182.57901811 362.73430508 -182.57883375 361.70679467 -182.5786438 360.64814758 C-182.58232049 359.55401552 -182.58599717 358.45988346 -182.58978528 357.33259588 C-182.60082966 353.65323426 -182.60466727 349.97390087 -182.60847473 346.29452515 C-182.61473884 343.66156932 -182.6213856 341.02861437 -182.62838745 338.3956604 C-182.64813847 330.48471444 -182.65821683 322.57376723 -182.66711524 314.66280279 C-182.67150081 310.93496117 -182.67686696 307.20712097 -182.68210411 303.47928047 C-182.69911585 291.08255655 -182.71360887 278.6858335 -182.72085285 266.28909969 C-182.72276267 263.07297197 -182.72468301 259.85684425 -182.72663879 256.64071655 C-182.72712253 255.8413886 -182.72760627 255.04206065 -182.72810467 254.21851064 C-182.73640068 241.27693261 -182.76173055 228.33544714 -182.79421947 215.39390951 C-182.8273223 202.09913201 -182.84530457 188.8044015 -182.84849709 175.50958258 C-182.85065933 168.04829611 -182.85936572 160.58714459 -182.88495827 153.12589836 C-182.90670947 146.76995869 -182.91469411 140.41418673 -182.90499149 134.05821406 C-182.9004593 130.81827243 -182.90446991 127.57874725 -182.92175293 124.33883858 C-182.93948263 120.81746595 -182.93235922 117.2969628 -182.91921997 113.77558899 C-182.93018922 112.76369363 -182.94115846 111.75179828 -182.95246011 110.70923942 C-182.83947308 98.11515352 -177.62700458 87.83170907 -169.30647278 78.57992554 C-160.02673363 69.71261924 -148.17391627 66.94925904 -135.81452942 67.04037476 C-134.76987518 67.0400827 -133.72522095 67.03979065 -132.64891052 67.03948975 C-129.21306407 67.04087755 -125.77743737 67.05641306 -122.34162903 67.07211304 C-119.95266844 67.07584511 -117.56370632 67.07869117 -115.17474365 67.08068848 C-108.89968102 67.08830957 -102.62471158 67.10794506 -96.34968567 67.13009644 C-89.94141399 67.15058765 -83.53312718 67.1596972 -77.12483215 67.16976929 C-64.56033937 67.19119232 -51.99591104 67.22492323 -39.43147278 67.26742554 C-39.24631607 66.51261398 -39.06115936 65.75780243 -38.87039185 64.9801178 C-36.60906764 55.8366039 -34.07454882 46.79893937 -31.40779114 37.76669312 C-30.88088334 35.97201025 -30.36039398 34.17543078 -29.8462677 32.37704468 C-23.57203012 10.44412838 -23.57203012 10.44412838 -15.43147278 3.82992554 C-10.24971216 1.13109188 -5.83908603 0.01773231 0 0 Z " fill="#6A0889" transform="translate(186.4314727783203,52.732574462890625)"/>
<path d="M0 0 C20.09942181 17.31408494 34.78552672 43.7612355 36.81640625 70.375 C38.28331309 103.91808057 31.58551268 132.48777761 8.40625 157.92236328 C-6.38557598 173.84438312 -24.16044385 184.62615462 -45.18359375 190.375 C-46.13830566 190.63684082 -47.09301758 190.89868164 -48.07666016 191.16845703 C-55.95798831 193.16993236 -63.31761041 193.8511484 -71.43359375 193.75 C-72.60801025 193.74129883 -73.78242676 193.73259766 -74.99243164 193.72363281 C-105.74133689 193.20829983 -132.46216035 180.91462422 -153.91455078 159.11279297 C-173.85330849 138.16633811 -183.24649132 111.89088756 -183.43359375 83.3125 C-183.44302002 82.22412842 -183.45244629 81.13575684 -183.4621582 80.0144043 C-183.36081555 54.66153127 -174.28175146 31.78253508 -158.18359375 12.375 C-157.46429688 11.50359375 -156.745 10.6321875 -156.00390625 9.734375 C-115.59096429 -37.1503904 -46.04584771 -38.39765092 0 0 Z " fill="#8751A7" transform="translate(329.18359375,205.625)"/>
<path d="M0 0 C50.16 0 100.32 0 152 0 C152 67.65 152 135.3 152 205 C101.84 205 51.68 205 0 205 C6 198 6 198 9.25 194.9375 C32.94467075 171.45159287 44.1518758 136.71541414 44.49191284 104.12683105 C44.5387711 91.0793707 43.99915876 78.5137728 40 66 C39.63793457 64.84105225 39.63793457 64.84105225 39.26855469 63.65869141 C31.78740692 40.33538984 19.36613792 20.22874759 2 3 C1.34 2.67 0.68 2.34 0 2 C0 1.34 0 0.68 0 0 Z " fill="#F3EEEC" transform="translate(348,186)"/>
<path d="M0 0 C20.99322443 -0.2342129 41.98623164 -0.41024109 62.98050022 -0.51812172 C72.72987764 -0.56955752 82.47844054 -0.63960709 92.22729492 -0.75439453 C100.73030279 -0.85446458 109.23272046 -0.91867527 117.73630089 -0.94088495 C122.2339824 -0.95385644 126.72997638 -0.98405971 131.22711372 -1.05730057 C135.47201195 -1.12586452 139.71455007 -1.14598255 143.95994949 -1.13107681 C145.50667274 -1.13379798 147.053486 -1.15328722 148.59972572 -1.19205475 C160.35446919 -1.47197957 167.00141079 1.6751447 176.2580117 8.77267194 C200.45504594 25.82083416 236.28923339 29.32756712 264.78125 25.31640625 C269.59626231 24.47903284 274.30004516 23.33327734 279 22 C279.76699219 21.78569336 280.53398437 21.57138672 281.32421875 21.35058594 C295.64508213 17.23063906 314.25090839 10.74909161 325 0 C327.10093825 -0.09687035 329.20519517 -0.12186861 331.30836487 -0.12025452 C331.97483833 -0.12110894 332.64131179 -0.12196337 333.32798141 -0.12284368 C335.57748634 -0.12450035 337.82691788 -0.11897411 340.07641602 -0.11352539 C341.68245441 -0.11324353 343.28849293 -0.11340122 344.89453125 -0.1139679 C349.26831067 -0.11425593 353.64206292 -0.10835832 358.015836 -0.10139394 C362.58159578 -0.09516131 367.14735613 -0.09455667 371.71311951 -0.09336853 C380.36521305 -0.09025495 389.01729403 -0.08204119 397.66938204 -0.07201904 C407.51685823 -0.06085874 417.36433501 -0.05534766 427.21181595 -0.05032361 C447.474551 -0.0398586 467.73727471 -0.02225864 488 0 C488.04584396 3.18354549 488.07329949 6.36700457 488.09765625 9.55078125 C488.11074829 10.44446411 488.12384033 11.33814697 488.1373291 12.25891113 C488.19783072 22.82249356 486.04392273 31.87304817 478.97265625 40.0703125 C467.69192794 51.10532198 454.62118933 52.59414596 439.58534241 52.50793457 C437.82723091 52.51254902 436.06912328 52.51890559 434.31102365 52.52684355 C429.50186743 52.54348535 424.69303021 52.53531395 419.88387311 52.52289867 C414.6888111 52.51382932 409.49380304 52.52782731 404.29875183 52.53881836 C394.13004809 52.5565884 383.96146258 52.55277021 373.79275424 52.5411678 C365.52651887 52.53212731 357.26031658 52.53091215 348.99407768 52.53526306 C347.81672886 52.53587599 346.63938003 52.53648893 345.42635397 52.53712043 C343.03443761 52.53839936 340.64252126 52.53969621 338.25060492 52.5410108 C315.83047341 52.55241229 293.41040736 52.53930989 270.99028658 52.51780933 C251.76277871 52.49994109 232.53536745 52.50304107 213.30786133 52.52148438 C190.96846709 52.54290268 168.62913022 52.55131124 146.28972715 52.53903532 C143.90639747 52.53776115 141.52306778 52.53650367 139.13973808 52.53526306 C137.96716052 52.53464596 136.79458296 52.53402886 135.58647274 52.53339306 C127.33296977 52.52994287 119.07950326 52.53576141 110.82600594 52.54518127 C100.76363772 52.55641338 90.70139427 52.55333574 80.6390403 52.5320583 C75.50740718 52.52156393 70.3759819 52.51739858 65.24435043 52.53065491 C60.54209161 52.54261809 55.84023232 52.53595168 51.13800948 52.5147447 C49.44163932 52.51029521 47.74523505 52.5125075 46.04888702 52.52224785 C32.22200956 52.59551935 20.33403448 51.02586248 10 41 C1.46914104 31.99202365 -0.26634759 22.65427565 -0.1015625 10.6015625 C-0.09423096 9.58102783 -0.08689941 8.56049316 -0.0793457 7.5090332 C-0.06030459 5.00585974 -0.03364639 2.50301263 0 0 Z " fill="#526EA9" transform="translate(12,399)"/>
<path d="M0 0 C0.72740529 -0.00350607 1.45481057 -0.00701215 2.20425844 -0.01062447 C4.63673374 -0.01991326 7.0689683 -0.01502172 9.5014534 -0.01015663 C11.2650717 -0.01389416 13.02868835 -0.0184961 14.79230237 -0.02388728 C19.63514278 -0.03611997 24.47791412 -0.03585649 29.32076645 -0.03349853 C34.54518066 -0.03309043 39.76957271 -0.04412884 44.99397659 -0.05361366 C55.22836484 -0.07022614 65.46273005 -0.07572332 75.69713065 -0.07683842 C84.0163814 -0.07778878 92.33562455 -0.08189847 100.65487289 -0.08823967 C124.24225958 -0.10585278 147.82962806 -0.11507843 171.41702136 -0.11357872 C173.32440085 -0.11345885 173.32440085 -0.11345885 175.27031326 -0.11333656 C176.54345246 -0.1132548 177.81659166 -0.11317304 179.12831083 -0.1130888 C199.7616184 -0.11227589 220.39485298 -0.1314147 241.02813944 -0.1596133 C262.21502187 -0.18833995 283.4018687 -0.20215371 304.5887711 -0.20042574 C316.48328817 -0.19976177 328.37772871 -0.20525752 340.27222824 -0.22678185 C350.39948777 -0.24499073 360.52663608 -0.24934333 370.65390489 -0.235763 C375.81982389 -0.22923192 380.9855295 -0.22912136 386.15142822 -0.2464695 C390.88400337 -0.26219883 395.6161959 -0.25933787 400.34876171 -0.24190123 C402.05735231 -0.23883105 403.76597147 -0.24246441 405.4745284 -0.25362138 C419.20483689 -0.33731591 430.19153317 1.42605394 440.48515701 11.25726891 C442.8204803 13.76461378 444.70819438 16.32987149 446.48515701 19.25726891 C446.89894608 19.91469078 447.31273514 20.57211266 447.73906326 21.24945641 C452.24678108 30.07641602 450.72739562 40.68884389 450.48515701 50.25726891 C439.92515701 50.25726891 429.36515701 50.25726891 418.48515701 50.25726891 C418.23515701 37.13226891 418.23515701 37.13226891 418.18730545 33.02631187 C418.04564885 24.29141241 418.04564885 24.29141241 413.48515701 17.25726891 C409.79665537 14.64266008 407.2825248 13.87795215 402.78032303 13.85321617 C401.65888397 13.840532 400.53744492 13.82784782 399.38202286 13.81477928 C398.17984619 13.81771492 396.97766953 13.82065056 395.73906326 13.82367516 C394.49519348 13.8184333 393.2513237 13.81319145 391.96976089 13.80779076 C388.66920361 13.7997308 385.36906262 13.8068294 382.06853104 13.81812096 C380.05086155 13.81976629 378.03375548 13.80778745 376.01616287 13.79071617 C372.13186195 13.76002622 368.24846607 13.7566342 364.36406326 13.76117516 C363.16391083 13.74994118 361.96375839 13.7387072 360.7272377 13.7271328 C352.28104933 13.77781239 352.28104933 13.77781239 345.48515701 18.25726891 C342.69563309 22.12678008 342.0857409 24.91262905 341.97343826 29.65180016 C341.93798904 30.85385094 341.90253983 32.05590172 341.86601639 33.29437828 C341.84345779 34.54025719 341.8208992 35.78613609 341.79765701 37.06976891 C341.76349686 38.33498375 341.7293367 39.60019859 341.69414139 40.90375328 C341.61178573 44.02150336 341.54259173 47.13897649 341.48515701 50.25726891 C333.90926071 50.48738793 326.33427992 50.64386679 318.75566483 50.75165367 C316.18338218 50.79663154 313.6113259 50.85783719 311.03984451 50.93622398 C295.42628323 51.39990311 284.64010759 51.66529868 272.48515701 41.25726891 C269.85524954 39.67450043 267.14855783 38.34853061 264.36015701 37.06976891 C263.66623856 36.74863121 262.9723201 36.42749352 262.25737381 36.09662437 C256.72742937 33.63003045 251.08335665 31.65869667 245.29765701 29.88226891 C244.14209305 29.52419151 244.14209305 29.52419151 242.96318436 29.15888023 C230.95695323 25.68564011 218.86222783 24.93059975 206.42265701 25.00726891 C204.53450272 24.99566734 204.53450272 24.99566734 202.60820389 24.98383141 C194.38852523 25.00080545 186.56019442 25.73185369 178.48515701 27.25726891 C177.74048172 27.39793785 176.99580643 27.5386068 176.22856522 27.68353844 C161.30568231 30.72826233 141.94952209 37.16780693 130.79043961 47.83263206 C124.96490162 51.97304729 117.47140179 50.90838154 110.63579178 50.82489586 C109.01901671 50.82348432 107.40223845 50.82427943 105.78546524 50.82710838 C101.40970344 50.82853984 97.03463038 50.79919423 92.65902829 50.7642386 C88.08132648 50.73292983 83.50360795 50.7300408 78.92581558 50.72411156 C70.26315123 50.70858637 61.60080331 50.6675759 52.93827814 50.61736411 C43.07377752 50.56142935 33.20926159 50.53397376 23.3446418 50.50888693 C3.05797043 50.45665884 -17.22841632 50.36874237 -37.51484299 50.25726891 C-37.57340466 46.89796838 -37.60862666 43.53880105 -37.63984299 40.17914391 C-37.6566008 39.23409996 -37.67335861 38.28905602 -37.69062424 37.31537437 C-37.76748697 26.27596444 -34.44199618 18.21938949 -26.75703049 10.22992516 C-18.84811287 3.27173108 -10.55957495 0.01151868 0 0 Z " fill="#526DA9" transform="translate(49.51484298706055,127.74273109436035)"/>
<path d="M0 0 C3.66730204 3.03417761 7.02121265 6.32475871 10.33789062 9.73535156 C11.02753906 10.43917969 11.7171875 11.14300781 12.42773438 11.86816406 C26.30665503 26.87076101 30.35781818 45.04482947 29.81835938 64.91894531 C29.31717386 73.44190681 26.76883749 80.97966469 23.33789062 88.73535156 C22.89316406 89.76917969 22.4484375 90.80300781 21.99023438 91.86816406 C13.40892203 109.43108321 -3.537509 121.19526908 -21.53710938 127.61035156 C-39.76558913 133.02245029 -59.67158948 129.89716532 -76.28710938 121.39160156 C-82.86839671 117.68962744 -88.28339066 113.00485771 -93.66210938 107.73535156 C-94.28988281 107.14367187 -94.91765625 106.55199219 -95.56445312 105.94238281 C-107.38499402 93.80019455 -112.97729264 75.49693844 -113.03710938 58.92285156 C-112.94157497 52.3433256 -112.46486644 46.09064072 -110.66210938 39.73535156 C-110.4790625 38.94515625 -110.29601562 38.15496094 -110.10742188 37.34082031 C-107.10135886 25.55779551 -100.11993354 16.23518478 -91.66210938 7.73535156 C-90.92476562 6.96320313 -90.18742187 6.19105469 -89.42773438 5.39550781 C-66.53875258 -17.07102633 -25.62464365 -19.49701147 0 0 Z " fill="#F3EEEC" transform="translate(297.662109375,230.2646484375)"/>
<path d="M0 0 C0.73138184 -0.00570007 1.46276367 -0.01140015 2.21630859 -0.01727295 C3.75926291 -0.0266682 5.30223679 -0.03323498 6.84521484 -0.03710938 C9.15369849 -0.04673407 11.46125885 -0.07777512 13.76953125 -0.109375 C27.00364943 -0.20554248 39.3274136 1.63023851 51.75 6.453125 C52.94713623 6.90872803 52.94713623 6.90872803 54.16845703 7.37353516 C73.40278054 14.84605635 88.68072205 25.56098053 103.1875 40.203125 C104.33798828 41.35748047 104.33798828 41.35748047 105.51171875 42.53515625 C127.702679 65.8264947 138.67441664 97.12488571 138.5 128.953125 C138.49784485 129.66066925 138.4956897 130.3682135 138.49346924 131.09719849 C138.31930995 166.70572553 123.21041156 198.65796426 98.04541016 223.71362305 C79.25679981 241.78410399 55.64023244 252.5569913 30.1875 257.203125 C28.62515625 257.49123047 28.62515625 257.49123047 27.03125 257.78515625 C-8.71614458 261.67232212 -43.31578979 253.27261339 -71.62744141 230.61303711 C-94.09208614 212.05432766 -108.5441356 189.07713291 -116.8125 161.203125 C-117.17472656 159.98238281 -117.53695312 158.76164063 -117.91015625 157.50390625 C-122.63748698 137.51719166 -121.66279833 112.81697242 -115.8125 93.203125 C-115.60882813 92.51976074 -115.40515625 91.83639648 -115.1953125 91.13232422 C-109.93321717 74.27819019 -101.18245147 58.6508341 -89.8125 45.203125 C-89.18472656 44.43613281 -88.55695313 43.66914063 -87.91015625 42.87890625 C-83.9401204 38.15267309 -79.58972395 34.10159538 -74.8125 30.203125 C-73.87664062 29.4296875 -72.94078125 28.65625 -71.9765625 27.859375 C-51.75019886 11.50600907 -26.31226812 0.1638692 0 0 Z M-61.8125 44.203125 C-63.01519531 45.19505859 -63.01519531 45.19505859 -64.2421875 46.20703125 C-83.61085245 62.58893946 -98.14317295 88.33565926 -100.63378906 113.66137695 C-102.749225 143.74854021 -98.19490964 174.11522381 -77.85546875 197.734375 C-75.3727995 200.50628346 -72.80337749 203.18202084 -70.18017578 205.82080078 C-68.97281268 207.0410953 -67.79454639 208.2900309 -66.62109375 209.54296875 C-48.80734955 228.29238437 -22.33229624 238.54041126 3.171875 239.4765625 C17.61661541 239.78185335 30.47575432 238.85351558 44.1875 234.203125 C44.87763184 233.97318848 45.56776367 233.74325195 46.27880859 233.50634766 C74.22951491 223.93196026 96.54791336 202.5370074 109.43725586 176.29248047 C116.70009717 160.88868953 119.32663104 146.07496495 119.4375 129.140625 C119.44692627 128.05225342 119.45635254 126.96388184 119.46606445 125.8425293 C119.34887747 96.52588463 106.94895517 70.71465629 86.8984375 49.8828125 C65.67748787 28.90648477 36.04369506 17.7516885 6.3815918 17.90063477 C-18.2721119 18.5405655 -43.43258189 27.56896972 -61.8125 44.203125 Z " fill="#F9BF4C" transform="translate(246.8125,159.796875)"/>
<path d="M0 0 C50.49 0 100.98 0 153 0 C150.525 2.475 150.525 2.475 148 5 C123.09481854 29.98387082 107.63037165 63.7059041 107.6184082 99.1600647 C107.6205835 99.89099335 107.62275879 100.621922 107.625 101.375 C107.6262085 102.12566742 107.62741699 102.87633484 107.62866211 103.64974976 C107.77403403 136.99886547 118.97813065 167.73066604 141 193 C142.39798828 194.36705078 142.39798828 194.36705078 143.82421875 195.76171875 C146 198 146 198 146 200 C146.61875 200.268125 147.2375 200.53625 147.875 200.8125 C150 202 150 202 152 205 C101.84 205 51.68 205 0 205 C0 196.75 0 188.5 0 180 C5.45660156 179.97873047 5.45660156 179.97873047 11.0234375 179.95703125 C14.57154424 179.92636169 18.11946661 179.88728539 21.66748047 179.84741211 C24.12118953 179.82430659 26.57499672 179.80985401 29.02880859 179.80444336 C32.56930167 179.79509979 36.10826697 179.7539873 39.6484375 179.70703125 C41.277173 179.71293022 41.277173 179.71293022 42.93881226 179.71894836 C50.97900905 179.56713566 58.14744412 177.94270226 63.94393921 172.01057434 C69.9813589 164.69466244 70.30042508 157.11650054 70.30639648 147.9909668 C70.31888176 146.3602977 70.31888176 146.3602977 70.33161926 144.69668579 C70.35565236 141.11416001 70.3644831 137.53181652 70.37109375 133.94921875 C70.38006477 131.44969123 70.38918671 128.95016426 70.39845276 126.45063782 C70.41492685 121.21456151 70.42267283 115.97852947 70.42553711 110.74243164 C70.42876837 105.37766905 70.44989901 100.01331472 70.48706055 94.64868164 C70.5313515 88.15663206 70.55100328 81.66496653 70.55226326 75.17276955 C70.55645824 72.70531258 70.56886328 70.23785489 70.58978081 67.77048302 C70.61676637 64.31228134 70.6118472 60.85547152 70.59936523 57.3972168 C70.61419952 56.38753342 70.62903381 55.37785004 70.64431763 54.33757019 C70.56669262 46.74945539 68.66013578 40.21142474 63.5926733 34.38070202 C56.39888606 27.9195469 49.14569024 27.54168565 39.94140625 27.48828125 C38.79711655 27.47033005 37.65282684 27.45237885 36.47386169 27.43388367 C32.83677805 27.37991547 29.19982466 27.34592731 25.5625 27.3125 C23.08917464 27.27931513 20.61586643 27.24482439 18.14257812 27.20898438 C12.09503471 27.12175044 6.04807668 27.06156343 0 27 C0 18.09 0 9.18 0 0 Z " fill="#F2EDEC" transform="translate(12,186)"/>
<path d="M0 0 C1.24198151 -0.01134979 2.48396301 -0.02269958 3.76358032 -0.03439331 C5.12698429 -0.03175037 6.49038766 -0.02877922 7.85379028 -0.0255127 C9.29981134 -0.03285782 10.74582654 -0.04144535 12.1918335 -0.05117798 C16.10929791 -0.07335684 20.02655176 -0.07632648 23.94407034 -0.07443047 C27.21929886 -0.07431059 30.49448306 -0.08288176 33.76969922 -0.09120798 C41.4995827 -0.11042922 49.2293582 -0.11333065 56.95925903 -0.10656738 C64.92215676 -0.0999282 72.88459107 -0.12278865 80.84739482 -0.15988111 C87.69432038 -0.19061323 94.54109714 -0.20193433 101.38809025 -0.1980443 C105.47293827 -0.19598031 109.55742566 -0.20140136 113.6422081 -0.22593689 C117.48543415 -0.24825978 121.32790876 -0.24628109 125.17113876 -0.22600937 C126.57716459 -0.22260896 127.98324155 -0.22764666 129.3891983 -0.24199295 C139.16494073 -0.33481818 144.89103764 0.84291136 152.00662231 7.55847168 C154.51682008 11.72873159 155.70741675 16.1053273 157.02615356 20.76940918 C157.62721718 22.82424268 158.22879565 24.87892563 158.83084106 26.93347168 C159.13731567 27.99211426 159.44379028 29.05075684 159.759552 30.14147949 C160.71815142 33.40974425 161.71275352 36.66472427 162.72146606 39.91784668 C163.04461792 40.96150391 163.36776978 42.00516113 163.70071411 43.08044434 C164.32523771 45.09374285 164.95164573 47.10645796 165.58010864 49.11853027 C165.8600769 50.02941406 166.14004517 50.94029785 166.42849731 51.87878418 C166.67720581 52.68025879 166.92591431 53.4817334 167.18215942 54.30749512 C167.71365356 56.39440918 167.71365356 56.39440918 167.71365356 59.39440918 C101.71365356 59.39440918 35.71365356 59.39440918 -32.28634644 59.39440918 C-31.63508698 55.48685242 -31.01849386 52.18549359 -29.86837769 48.48034668 C-29.58663696 47.56382324 -29.30489624 46.6472998 -29.01461792 45.70300293 C-28.71241333 44.73491699 -28.41020874 43.76683105 -28.09884644 42.76940918 C-26.22910133 36.75851777 -24.36405296 30.75524254 -22.70040894 24.68347168 C-22.45057251 23.79095703 -22.20073608 22.89844238 -21.94332886 21.97888184 C-21.47821018 20.30811622 -21.02686254 18.6334285 -20.59225464 16.95446777 C-18.70246806 10.27491582 -15.675912 5.3508752 -9.56704521 1.82482147 C-6.06972747 0.29996149 -3.78996271 0.01313987 0 0 Z " fill="#526DA9" transform="translate(188.28634643554688,60.6055908203125)"/>
<path d="M0 0 C53.77429646 0 53.77429646 0 59.85337067 5.75437832 C63.35200929 11.46546911 63.70304016 16.37843658 63.61523438 22.98657227 C63.62078339 24.05914276 63.6263324 25.13171326 63.63204956 26.23678589 C63.64381028 29.7637879 63.61960661 33.28949509 63.59375 36.81640625 C63.592038 39.27684979 63.59210548 41.73729515 63.59387207 44.19773865 C63.59222088 49.34644088 63.57355757 54.49470663 63.54199219 59.64331055 C63.50229508 66.23628805 63.49795083 72.82869478 63.50545502 79.42176914 C63.50852718 84.49962067 63.49639563 89.57734435 63.47932434 94.65516472 C63.47230367 97.08598974 63.46916867 99.51682925 63.47001648 101.94766426 C63.46821497 105.34631578 63.44680228 108.74428843 63.41992188 112.14282227 C63.42285248 113.14301895 63.42578308 114.14321564 63.42880249 115.17372131 C63.34151718 122.34149479 62.3887274 127.24377607 57.5625 132.8125 C42.016579 146.08340817 20.2362513 137 0 137 C0 91.79 0 46.58 0 0 Z " fill="#8751A7" transform="translate(12,221)"/>
<path d="M0 0 C20.09942181 17.31408494 34.78552672 43.7612355 36.81640625 70.375 C38.28331309 103.91808057 31.58551268 132.48777761 8.40625 157.92236328 C-6.38557598 173.84438312 -24.16044385 184.62615462 -45.18359375 190.375 C-46.13830566 190.63684082 -47.09301758 190.89868164 -48.07666016 191.16845703 C-55.95798831 193.16993236 -63.31761041 193.8511484 -71.43359375 193.75 C-72.60801025 193.74129883 -73.78242676 193.73259766 -74.99243164 193.72363281 C-105.74133689 193.20829983 -132.46216035 180.91462422 -153.91455078 159.11279297 C-173.85330849 138.16633811 -183.24649132 111.89088756 -183.43359375 83.3125 C-183.44302002 82.22412842 -183.45244629 81.13575684 -183.4621582 80.0144043 C-183.36081555 54.66153127 -174.28175146 31.78253508 -158.18359375 12.375 C-157.46429688 11.50359375 -156.745 10.6321875 -156.00390625 9.734375 C-115.59096429 -37.1503904 -46.04584771 -38.39765092 0 0 Z M-144.18359375 9.375 C-145.04082031 10.22578125 -145.89804688 11.0765625 -146.78125 11.953125 C-158.0636356 23.32723732 -165.56342521 36.47109126 -171.18359375 51.375 C-171.62058594 52.52484375 -172.05757812 53.6746875 -172.5078125 54.859375 C-178.08385697 72.78097757 -177.64654474 96.79818938 -171.18359375 114.375 C-170.75949219 115.61378906 -170.33539063 116.85257813 -169.8984375 118.12890625 C-164.38537061 133.50642497 -155.78235403 145.97482087 -144.18359375 157.375 C-143.43335938 158.12394531 -142.683125 158.87289062 -141.91015625 159.64453125 C-120.32247012 179.98831725 -92.78118586 186.26545889 -63.95654297 185.51123047 C-57.84108949 185.21078822 -52.08305413 184.01780351 -46.18359375 182.375 C-44.36021484 181.88193359 -44.36021484 181.88193359 -42.5 181.37890625 C-28.01611282 177.02318992 -15.34102963 169.57954928 -4.18359375 159.375 C-2.90742188 158.22064453 -2.90742188 158.22064453 -1.60546875 157.04296875 C15.10734353 141.17605034 27.99920024 117.03329465 28.9230957 93.67797852 C28.98701722 90.51373597 29.00201678 87.35236533 29.00390625 84.1875 C29.01615234 83.12724609 29.02839844 82.06699219 29.04101562 80.97460938 C29.09114655 53.5529943 17.17769707 29.24870928 -1.18359375 9.375 C-24.77086364 -12.61024433 -51.45997077 -19.46048186 -82.95898438 -18.75683594 C-106.42730277 -17.79734987 -127.76018014 -6.99421092 -144.18359375 9.375 Z " fill="#6B0988" transform="translate(329.18359375,205.625)"/>
<path d="M0 0 C1.1034375 -0.01611328 2.206875 -0.03222656 3.34375 -0.04882812 C24.2003171 -0.06106789 42.79770387 8.71269113 57.875 22.84765625 C73.56641844 39.13266454 80.92471814 58.56044942 80.65039062 80.89648438 C79.95631109 104.23298076 70.32693988 123.55302729 53.44140625 139.51953125 C36.29161623 154.98108147 14.43366413 159.34169866 -7.88330078 158.49902344 C-23.25298896 157.49898581 -39.42195136 149.66898242 -50.75 139.3125 C-51.64203125 138.51199219 -52.5340625 137.71148437 -53.453125 136.88671875 C-68.28757036 122.88316446 -77.09823348 104.24959684 -78.0703125 83.8359375 C-78.73268927 60.71783943 -72.02876081 41.80023828 -56.75 24.3125 C-41.59604151 8.37132288 -21.79514551 -0.06277404 0 0 Z M-50.75 30.3125 C-51.76320312 31.33150391 -51.76320312 31.33150391 -52.796875 32.37109375 C-66.61365483 47.07434839 -70.34885737 64.94892459 -70.01953125 84.4296875 C-69.22192149 104.60174904 -58.85595439 120.93555381 -44.609375 134.32421875 C-29.08892536 147.50475327 -10.53620888 151.05399501 9.25 150.3125 C26.53217986 148.74951216 41.07964234 140.2357438 53.25 128.3125 C53.87777344 127.72082031 54.50554687 127.12914062 55.15234375 126.51953125 C61.26806117 120.23739975 64.75620772 112.24231977 68.25 104.3125 C68.71019531 103.28382813 69.17039062 102.25515625 69.64453125 101.1953125 C75.28135399 86.17706394 73.9082465 66.32618358 67.73828125 51.73828125 C64.44419033 44.57733793 60.51621571 38.17690654 55.25 32.3125 C54.52167969 31.49136719 53.79335938 30.67023438 53.04296875 29.82421875 C41.90972733 17.97154331 26.29361584 9.2218286 9.76147461 8.15136719 C-14.81161376 7.75588003 -33.39608879 12.23994523 -50.75 30.3125 Z " fill="#6B0A8B" transform="translate(254.75,209.6875)"/>
<path d="M0 0 C50.16 0 100.32 0 152 0 C152 67.65 152 135.3 152 205 C146.72 205 141.44 205 136 205 C136 137.68 136 70.36 136 1 C91.12 1.33 46.24 1.66 0 2 C0 1.34 0 0.68 0 0 Z " fill="#D4CCCD" transform="translate(348,186)"/>
<path d="M0 0 C1.08566757 -0.00744736 1.08566757 -0.00744736 2.19326782 -0.01504517 C4.59329167 -0.02967762 6.99324938 -0.03647106 9.39331055 -0.04199219 C11.05999249 -0.04774338 12.72667442 -0.05350112 14.39335632 -0.05926514 C17.8913097 -0.06977864 21.38924007 -0.07561881 24.88720703 -0.07910156 C29.36631788 -0.08458271 33.84512419 -0.10860099 38.3241396 -0.13707352 C41.76855858 -0.15571239 45.21290446 -0.16090619 48.65736961 -0.16243744 C50.30836843 -0.1654624 51.959366 -0.1734857 53.61031532 -0.18662262 C55.92273617 -0.20370727 58.23441637 -0.20179713 60.546875 -0.1953125 C61.86210648 -0.19895813 63.17733795 -0.20260376 64.53242493 -0.20635986 C68.9247927 0.2635423 71.35817959 1.86003271 74.72143555 4.57910156 C77.14522658 7.65632842 77.17542906 11.36046521 76.9675293 15.16113281 C74.62430935 20.2224879 72.03615551 22.07237797 66.9675293 24.16113281 C63.51501465 24.54881287 63.51501465 24.54881287 59.68041992 24.56518555 C58.97717087 24.5720488 58.27392181 24.57891205 57.54936218 24.58598328 C55.2406252 24.60418227 52.93257213 24.60042444 50.6237793 24.59472656 C49.01004823 24.59929124 47.3963191 24.60459767 45.78259277 24.61061096 C42.4068205 24.61952813 39.03128499 24.61713441 35.65551758 24.60717773 C31.33786988 24.59568137 27.02103924 24.61591621 22.70349884 24.64509487 C19.37309616 24.66347309 16.0428888 24.66316137 12.71244812 24.65745735 C11.12089389 24.65730438 9.52932621 24.66332886 7.93782043 24.67574883 C5.70957678 24.69069112 3.4828365 24.67996079 1.25463867 24.6628418 C-0.01077759 24.66267563 -1.27619385 24.66250946 -2.57995605 24.66233826 C-7.59116154 23.93485591 -10.74500398 21.74900844 -13.9074707 17.84863281 C-15.42023501 14.23480698 -15.63642196 12.05326312 -15.0324707 8.16113281 C-10.79189728 1.62520313 -7.74552625 0.04028388 0 0 Z " fill="#F2ECEB" transform="translate(225.032470703125,78.8388671875)"/>
<path d="M0 0 C5.28 0 10.56 0 16 0 C16 9.24 16 18.48 16 28 C14.02 28 12.04 28 10 28 C8.69338505 29.08108449 8.69338505 29.08108449 8.88647461 31.68383789 C8.89171143 32.85164795 8.89694824 34.01945801 8.90234375 35.22265625 C8.90556641 36.48271484 8.90878906 37.74277344 8.91210938 39.04101562 C8.92046597 40.38151109 8.92893093 41.72200588 8.9375 43.0625 C8.9425134 44.40689942 8.94707658 45.7513006 8.95117188 47.09570312 C8.96300512 50.39717941 8.97949029 53.69856803 9 57 C12.58327753 58.00217064 12.58327753 58.00217064 16 57 C16 83.4 16 109.8 16 137 C10.72 137 5.44 137 0 137 C0 91.79 0 46.58 0 0 Z " fill="#A56FC5" transform="translate(12,221)"/>
<path d="M0 0 C1.12254936 -0.0098568 1.12254936 -0.0098568 2.26777649 -0.01991272 C4.74533187 -0.03962743 7.22282661 -0.05130578 9.70043945 -0.0612793 C10.54824289 -0.06535482 11.39604633 -0.06943035 12.26954079 -0.07362938 C16.75911846 -0.09448486 21.24866563 -0.1087874 25.73828125 -0.11816406 C30.36400363 -0.1292122 34.9892428 -0.16359492 39.61479473 -0.20333576 C43.18114585 -0.22954906 46.74738282 -0.23786019 50.31382179 -0.24144554 C52.01817898 -0.24630132 53.72253141 -0.25788645 55.42679405 -0.27648354 C71.9799324 -0.44584886 71.9799324 -0.44584886 78.6262207 4.17700195 C80.68481445 6.2121582 80.68481445 6.2121582 82.0637207 8.23950195 C82.53680664 8.91110352 83.00989258 9.58270508 83.49731445 10.2746582 C86.28855846 14.97824239 86.23002161 20.00100917 85.2355957 25.23168945 C83.44348349 31.13646945 79.66681923 34.76121174 74.6262207 38.17700195 C70.4678288 40.23542339 66.67509194 40.47900441 62.1171875 40.48339844 C61.00883041 40.49588371 61.00883041 40.49588371 59.87808228 40.50862122 C57.44381383 40.53264708 55.00981377 40.54148444 52.57543945 40.5480957 C50.87539086 40.55706817 49.17534305 40.56619013 47.47529602 40.57545471 C43.91368698 40.59192746 40.35217175 40.5996416 36.79052734 40.60253906 C32.2409284 40.607919 27.69221895 40.64558972 23.1428709 40.69128323 C19.63140189 40.72112057 16.12014529 40.72826407 12.60856056 40.72926521 C10.93210593 40.73345482 9.25564993 40.74583833 7.57932091 40.76678276 C-9.40281003 40.96206345 -9.40281003 40.96206345 -15.3737793 35.17700195 C-19.70020915 30.8045561 -22.64910966 26.68625513 -22.7487793 20.42700195 C-22.61126576 15.23204629 -21.57454183 11.31760058 -18.3737793 7.17700195 C-12.52293273 1.77350382 -7.92742025 0.03019259 0 0 Z M-13.3737793 14.17700195 C-14.92854619 17.28653575 -14.66022366 19.73966956 -14.3737793 23.17700195 C-12.06333967 27.62673754 -9.86570465 30.01037786 -5.3737793 32.17700195 C-1.9644337 32.62961821 -1.9644337 32.62961821 1.79980469 32.56518555 C2.85445923 32.57307098 2.85445923 32.57307098 3.93041992 32.58111572 C6.24461368 32.59427253 8.55811421 32.5855925 10.87231445 32.57543945 C12.48747387 32.57746167 14.1026324 32.58037434 15.7177887 32.58413696 C19.09954539 32.58855464 22.481064 32.58214816 25.86279297 32.56811523 C30.18820152 32.55103724 34.51305101 32.560859 38.83843899 32.57883263 C42.17312292 32.58969731 45.50767536 32.58621162 48.84236336 32.57844925 C50.43669769 32.57645394 52.03104412 32.57888293 53.6253643 32.58588791 C55.85830967 32.59354534 58.0903629 32.58183883 60.32324219 32.56518555 C61.59167465 32.56279877 62.86010712 32.56041199 64.16697693 32.55795288 C69.33388501 31.98894458 72.5424264 30.34416505 76.0637207 26.55200195 C78.12209313 22.10591752 78.12479794 18.82687303 76.6262207 14.17700195 C74.06086874 10.93655737 72.5394157 9.48140029 68.6262207 8.17700195 C66.25683818 8.05659757 63.88422706 7.99713169 61.51196289 7.96826172 C60.79125107 7.95847794 60.07053925 7.94869415 59.32798767 7.93861389 C56.94304235 7.90870286 54.55815298 7.8872856 52.1730957 7.8684082 C51.3571418 7.86183638 50.5411879 7.85526455 49.70050812 7.84849358 C45.38067864 7.81591747 41.06087364 7.79146335 36.7409668 7.77197266 C33.17126473 7.75416764 29.60235384 7.7193592 26.03295898 7.66943359 C21.71759417 7.60914944 17.40296218 7.5784861 13.08719635 7.56879997 C11.44615397 7.56025764 9.80513053 7.54146941 8.16432953 7.51205635 C-4.0121642 7.09367027 -4.0121642 7.09367027 -13.3737793 14.17700195 Z " fill="#69088A" transform="translate(224.373779296875,70.822998046875)"/>
<path d="M0 0 C1.57183044 -0.01407143 1.57183044 -0.01407143 3.17541504 -0.02842712 C4.30153198 -0.01719315 5.42764893 -0.00595917 6.58789062 0.00561523 C7.74913452 0.00416 8.91037842 0.00270477 10.10681152 0.00120544 C12.56130483 0.002865 15.01580847 0.01443244 17.47021484 0.03515625 C21.22994126 0.06409967 24.9882571 0.05576747 28.74804688 0.04272461 C31.13216832 0.04896225 33.51628531 0.05735339 35.90039062 0.06811523 C37.02650757 0.0651796 38.15262451 0.06224396 39.31286621 0.05921936 C40.36075317 0.07190353 41.40864014 0.08458771 42.48828125 0.09765625 C43.40887329 0.10305923 44.32946533 0.10846222 45.2779541 0.11402893 C47.74414062 0.50170898 47.74414062 0.50170898 51.74414062 3.50170898 C51.74414062 12.08170898 51.74414062 20.66170898 51.74414062 29.50170898 C31.61414063 29.50170898 11.48414063 29.50170898 -9.25585938 29.50170898 C-9.25585938 0.0016707 -9.25585938 0.0016707 0 0 Z " fill="#F3EDEC" transform="translate(408.255859375,148.498291015625)"/>
<path d="M0 0 C5.28 0 10.56 0 16 0 C17.02016333 28.42288391 17.02016333 28.42288391 6.97265625 40.0703125 C-4.33812737 51.13472261 -17.42390054 52.59223804 -32.4954071 52.48101807 C-34.26206818 52.4827645 -36.02872823 52.48627074 -37.7953828 52.49137473 C-42.62773456 52.50028433 -47.45972916 52.48436648 -52.29203546 52.46426249 C-57.51138598 52.44694383 -62.73071732 52.45283731 -67.9500885 52.45587158 C-76.98560522 52.45796615 -86.02100616 52.44544575 -95.05649376 52.42292023 C-108.12017663 52.39037364 -121.18380367 52.37999048 -134.24752269 52.37496826 C-155.44393682 52.36621979 -176.64028927 52.33961634 -197.83666992 52.30175781 C-218.42358085 52.26502615 -239.01047501 52.23672003 -259.59741211 52.21972656 C-261.50176735 52.21815022 -261.50176735 52.21815022 -263.44459441 52.21654204 C-269.81383168 52.21132178 -276.18306906 52.20626697 -282.55230653 52.20129442 C-335.36824697 52.15984634 -388.18412047 52.08941007 -441 52 C-441 51.67 -441 51.34 -441 51 C-440.11357107 50.99940291 -439.22714213 50.99880582 -438.31385171 50.99819064 C-385.80581043 50.96231606 -333.29782653 50.90570693 -280.78983846 50.82207905 C-274.48863603 50.81206129 -268.18743334 50.80221721 -261.88623047 50.79248047 C-260.63174613 50.7905391 -259.37726179 50.78859772 -258.08476277 50.78659752 C-237.75805963 50.75555541 -217.43136779 50.7385907 -197.10464542 50.72680578 C-176.25585536 50.71440567 -155.40712471 50.68693008 -134.55837214 50.64538693 C-121.68802813 50.62021888 -108.81778261 50.60688513 -95.94741364 50.60857043 C-87.12812786 50.60860013 -78.30894258 50.59401935 -69.48969595 50.56783572 C-64.39736977 50.55315202 -59.30524971 50.54501908 -54.21290588 50.55419731 C-49.55306813 50.56245414 -44.89364541 50.55241253 -40.23386939 50.52766338 C-38.54603061 50.52195636 -36.8581528 50.52303118 -35.17032556 50.53148755 C-32.87891114 50.54198649 -30.58890262 50.52798062 -28.29758263 50.50780869 C-26.38720964 50.50553036 -26.38720964 50.50553036 -24.43824327 50.50320601 C-18.21389485 49.59223802 -14.06855469 45.57712402 -10 41 C-2.49516036 30.77628545 -0.98638666 22.06091919 -0.4375 9.5625 C-0.39431641 8.64017578 -0.35113281 7.71785156 -0.30664062 6.76757812 C-0.20145149 4.51185554 -0.10031164 2.25594475 0 0 Z " fill="#434991" transform="translate(484,399)"/>
<path d="M0 0 C5.28 0 10.56 0 16 0 C16.04898437 1.3509375 16.09796875 2.701875 16.1484375 4.09375 C16.22352506 5.89585144 16.29907025 7.69793385 16.375 9.5 C16.4059375 10.386875 16.436875 11.27375 16.46875 12.1875 C16.80407705 19.78824646 17.92559664 26.4528009 21.4375 33.3125 C21.84871094 34.13363281 22.25992188 34.95476562 22.68359375 35.80078125 C23.93707678 37.894879 25.28438056 39.29438417 27 41 C27 41.66 27 42.32 27 43 C27.53625 43.2475 28.0725 43.495 28.625 43.75 C31.57161419 45.30084957 34.27917566 47.08305558 37 49 C37 49.33 37 49.66 37 50 C26.86912505 50.76140187 19.74990467 47.98339816 11.84765625 41.68359375 C5.11736977 35.55092256 0.42686594 27.66626564 -0.16308594 18.453125 C-0.3352935 12.29617312 -0.20572496 6.15460514 0 0 Z " fill="#6F8BC7" transform="translate(12,400)"/>
<path d="M0 0 C0.90105469 0.00902344 1.80210938 0.01804688 2.73046875 0.02734375 C3.41753906 0.03894531 4.10460938 0.05054688 4.8125 0.0625 C2.43159825 2.51142751 0.18924157 4.80167891 -2.625 6.75 C-11.40076977 14.66959711 -14.09748306 25.56418545 -14.74291992 36.89697266 C-14.93482815 40.95152165 -15.07325994 45.00500834 -15.1875 49.0625 C-20.4675 49.0625 -25.7475 49.0625 -31.1875 49.0625 C-31.79818849 34.56882641 -32.08230888 22.9661596 -22.5 11.1875 C-16.40600956 4.81545677 -8.97634356 -0.11657589 0 0 Z " fill="#6F8BC7" transform="translate(43.1875,128.9375)"/>
<path d="M0 0 C9.12975358 -0.87412534 15.11937914 1.42502294 22.453125 6.796875 C27.7170026 11.15438957 31.30985502 15.71219125 34 22 C34.36996094 22.8559375 34.73992187 23.711875 35.12109375 24.59375 C36.35631385 29.38091413 36.21166682 33.95499139 36.125 38.875 C36.11597656 39.84953125 36.10695313 40.8240625 36.09765625 41.828125 C36.0742177 44.21885672 36.03835089 46.60946099 36 49 C30.72 49 25.44 49 20 49 C19.95101563 47.73285156 19.90203125 46.46570313 19.8515625 45.16015625 C19.77645809 43.46091904 19.70091368 41.76170124 19.625 40.0625 C19.5940625 39.23169922 19.563125 38.40089844 19.53125 37.54492188 C18.95062464 25.10986203 15.7189935 15.13418366 7 6 C4.71964074 4.24331406 2.37493677 2.62985857 0 1 C0 0.67 0 0.34 0 0 Z " fill="#34508C" transform="translate(464,129)"/>
<path d="M0 0 C5.28 0 10.56 0 16 0 C16 8.58 16 17.16 16 26 C10.72 26 5.44 26 0 26 C0 17.42 0 8.84 0 0 Z " fill="#FEFEFE" transform="translate(12,187)"/>
<path d="M0 0 C5.28 0 10.56 0 16 0 C16 8.25 16 16.5 16 25 C10.72 25 5.44 25 0 25 C0 16.75 0 8.5 0 0 Z " fill="#FFFFFF" transform="translate(12,366)"/>
<path d="M0 0 C2.1640625 0.59765625 2.1640625 0.59765625 4.7265625 2.72265625 C6.55126053 6.37205231 6.74057112 8.56209593 6.1640625 12.59765625 C4.60165416 15.72247293 3.41891552 17.17625039 0.0703125 18.30078125 C-4.20405375 19.07016718 -6.14409184 19.05888669 -9.8359375 16.59765625 C-12.20383474 13.0458104 -12.8359375 10.86048884 -12.8359375 6.59765625 C-9.98560762 0.18441402 -6.54211979 -0.92697789 0 0 Z " fill="#68088A" transform="translate(57.8359375,146.40234375)"/>
<path d="M0 0 C4.55555556 0.55555556 4.55555556 0.55555556 6 2 C6.25419185 6.4524159 6.18522973 10.91619131 6.1875 15.375 C6.19974609 16.633125 6.21199219 17.89125 6.22460938 19.1875 C6.22750977 20.99347656 6.22750977 20.99347656 6.23046875 22.8359375 C6.23457764 23.94501465 6.23868652 25.0540918 6.24291992 26.19677734 C6 29 6 29 4 32 C-0.875 31.125 -0.875 31.125 -2 30 C-2.2541555 25.35984675 -2.18522798 20.70878694 -2.1875 16.0625 C-2.19974609 14.74830078 -2.21199219 13.43410156 -2.22460938 12.08007812 C-2.22750977 10.2015918 -2.22750977 10.2015918 -2.23046875 8.28515625 C-2.23457764 7.12894775 -2.23868652 5.97273926 -2.24291992 4.78149414 C-2 2 -2 2 0 0 Z " fill="#690689" transform="translate(22,248)"/>
</svg>
